<svg height="512pt" viewBox="0 -17 512 512" width="512pt" xmlns="http://www.w3.org/2000/svg"><path d="m319.273438 460.429688v-253.746094c0-8.285156-6.714844-15-15-15h-96.546876c-8.285156 0-15 6.714844-15 15v253.746094zm0 0" fill="#7fcafc"/><path d="m467 0h-422c-24.8125 0-45 20.1875-45 45v303.996094c0 24.8125 20.1875 45 45 45h422c24.8125 0 45-20.1875 45-45v-303.996094c0-24.8125-20.1875-45-45-45zm0 0" fill="#f2f2f2"/><path d="m360.71875 447.429688h-209.4375c-8.28125 0-15 6.714843-15 15 0 8.285156 6.71875 15 15 15h209.4375c8.28125 0 15-6.714844 15-15 0-8.285157-6.71875-15-15-15zm0 0" fill="#2e76a6"/><path d="m304.273438 191.683594h-48.273438v268.746094h63.273438v-253.746094c0-8.285156-6.714844-15-15-15zm0 0" fill="#519bc9"/><path d="m360.71875 447.429688h-104.71875v30h104.71875c8.28125 0 15-6.714844 15-15 0-8.285157-6.71875-15-15-15zm0 0" fill="#11517d"/><path d="m0 293.71875v55.277344c0 24.8125 20.1875 45 45 45h422c24.8125 0 45-20.1875 45-45v-55.277344zm0 0" fill="#2e76a6"/><path d="m467 0h-211v393.996094h211c24.8125 0 45-20.1875 45-45v-303.996094c0-24.8125-20.1875-45-45-45zm0 0" fill="#7fcafc"/><path d="m256 293.71875v100.277344h211c24.8125 0 45-20.1875 45-45v-55.277344zm0 0" fill="#11517d"/><path d="m262.480469 322.730469h-12.957031c-8.285157 0-15 6.714843-15 15 0 8.28125 6.714843 15 15 15h12.957031c8.28125 0 15-6.71875 15-15 0-8.285157-6.71875-15-15-15zm0 0" fill="#7fcafc"/><path d="m262.480469 322.730469h-6.480469v30h6.480469c8.28125 0 15-6.71875 15-15 0-8.285157-6.71875-15-15-15zm0 0" fill="#519bc9"/><path d="m396.378906 46.789062h-219.890625c-8.285156 0-15 6.71875-15 15v121.121094c0 8.285156 6.714844 15 15 15h219.890625c8.28125 0 15-6.714844 15-15v-121.121094c0-8.28125-6.71875-15-15-15zm0 0" fill="#ff6c57"/><path d="m396.378906 46.789062h-140.378906v151.121094h140.378906c8.28125 0 15-6.714844 15-15v-121.121094c0-8.28125-6.71875-15-15-15zm0 0" fill="#8f3647"/><path d="m335.511719 112.503906h-219.890625c-8.28125 0-15 6.714844-15 15v121.117188c0 8.285156 6.71875 15 15 15h219.890625c8.285156 0 15-6.714844 15-15v-121.117188c0-8.285156-6.714844-15-15-15zm0 0" fill="#2e76a6"/><path d="m335.511719 112.503906h-79.511719v151.117188h79.511719c8.285156 0 15-6.714844 15-15v-121.117188c0-8.285156-6.714844-15-15-15zm0 0" fill="#11517d"/><g fill="#7fcafc"><path d="m174.5 191.683594h-5.480469c-8.285156 0-15 6.714844-15 15 0 8.28125 6.714844 15 15 15h5.480469c8.28125 0 15-6.71875 15-15 0-8.285156-6.71875-15-15-15zm0 0"/><path d="m284.070312 199.441406h-5.480468c-8.285156 0-15 6.714844-15 15s6.714844 15 15 15h5.480468c8.28125 0 15-6.714844 15-15s-6.714843-15-15-15zm0 0"/><path d="m273.089844 177.695312c8.28125 0 15-6.714843 15-15 0-8.285156-6.71875-15-15-15h-5.480469c-8.285156 0-15 6.714844-15 15 0 8.285157 6.714844 15 15 15zm0 0"/><path d="m234.195312 177.277344h-5.480468c-8.285156 0-15 6.714844-15 15s6.714844 15 15 15h5.480468c8.28125 0 15-6.714844 15-15s-6.714843-15-15-15zm0 0"/><path d="m181.835938 151.234375h-5.480469c-8.28125 0-15 6.71875-15 15 0 8.285156 6.71875 15 15 15h5.480469c8.285156 0 15-6.714844 15-15 0-8.28125-6.714844-15-15-15zm0 0"/></g></svg>