<svg width="512.00003" height="512" xmlns="http://www.w3.org/2000/svg">

 <g>
  <title>background</title>
  <rect fill="none" id="canvas_background" height="402" width="582" y="-1" x="-1"/>
 </g>
 <g>
  <title>Layer 1</title>
  <rect fill="#282828" fill-rule="nonzero" y="0" x="0.000015" width="512" ry="64" rx="64" id="rect2984" height="512"/>
  <path fill="#282828" id="path3366" d="m360.729058,56.111975c-1.11818,0.646273 -1.297345,0.982207 -0.999803,0.499102c-10.863781,18.299277 -11.143726,42.437883 -15.99685,63.9874a7.969951,7.969951 0 0 1 0,0.499102c-0.079984,0.315138 0.079984,0.686265 0,0.999803c-2.355696,23.134485 -9.981874,46.727919 -4.499114,68.986416a7.969951,7.969951 0 0 1 0.499102,1.498905c0.047991,0.161568 -0.047991,0.339133 0,0.499102c0.079984,0.127975 -0.079984,0.379125 0,0.499102c0.095981,0.143972 0.40472,-0.127975 0.499102,0c1.16937,1.608963 2.597569,2.813846 3.499311,2.999409c0.644673,0.127975 1.763013,0.063987 3.999212,-1.498905c2.419843,-1.684468 3.788534,-5.059324 4.499114,-9.49813a7.969951,7.969951 0 0 1 0.999803,-1.498905a7.969951,7.969951 0 0 1 0,-0.499102a7.969951,7.969951 0 0 1 0.499102,-1.498905a7.969951,7.969951 0 0 1 0.499102,-0.499102c9.571555,-38.183041 16.04916,-78.253711 13.497342,-117.476867c-0.326336,-1.949856 -0.684665,-3.308149 -2.499508,-5.498917c-1.204563,-1.450914 -2.192208,-2.28419 -2.499508,-2.499508c-0.30714,-0.215957 0.111978,-0.063987 -0.999803,0a7.969951,7.969951 0 0 1 -0.499102,0c-0.411119,0.047991 -0.25275,-0.009758 -0.499102,0l0.0016,0z"/>
  <path fill="#282828" id="path3364" d="m448.854562,74.822577c-16.578495,8.056814 -25.064824,27.280548 -36.492814,42.991534a7.46749,7.46749 0 0 1 -0.499102,1.498905a7.46749,7.46749 0 0 1 -0.499102,0.999803c-14.488187,25.676704 -32.973187,51.307977 -34.993109,80.984053c-0.011358,0.167967 0.010398,0.332734 0,0.499102c0.220757,4.478318 2.785372,6.910319 5.498917,7.498523c2.664755,0.575887 7.590025,-0.950213 9.49813,-3.999212a7.46749,7.46749 0 0 1 0.499102,-0.499102a7.46749,7.46749 0 0 1 0,-0.499102a7.46749,7.46749 0 0 1 0,-0.499102c26.330815,-36.180556 46.137475,-78.782727 62.487695,-120.476277a7.46749,7.46749 0 0 1 0,-0.499102c1.130977,-2.737541 1.505304,-3.438203 0.499102,-5.498917c-0.295942,-0.60948 -3.397251,-2.698829 -4.999016,-2.499508c-0.260749,0.111978 -0.743854,-0.127975 -0.999803,0l0,-0.0016z"/>
  <path fill="#282828" id="path3302" d="m190.837255,86.758626c-2.675633,0.497502 -6.656289,2.89383 -9.49813,3.999212c-10.051141,3.813169 -15.596929,12.429233 -17.996456,22.49557c-2.443359,10.299092 -1.628959,21.769153 0,33.493405c1.628639,11.700896 3.95954,23.779158 6.49872,32.993503c2.18277,7.97219 3.745662,11.850466 4.499114,14.497145l0,1.999606c0,0.871828 -0.417518,0.799842 -0.999803,1.498905c-0.319937,0.174366 0.319937,0.999803 0,0.999803c-0.724657,0.553491 -1.598085,0.999803 -2.499508,0.999803c-1.77581,0.111978 -3.163857,-0.534295 -4.999016,-0.999803c-1.250954,-0.289543 -2.878633,-1.290946 -2.499508,-0.999803c-0.580686,-0.348731 -1.620481,-0.388723 -1.999606,-0.999803c0,0.233554 0.350331,0.228755 0,-0.499102c-0.40632,-0.756651 -0.859031,-2.661876 -1.498905,-3.999213c-1.425319,-3.030763 -2.544779,-6.541912 -4.499114,-10.997834c-3.900192,-8.873773 -8.918884,-19.773546 -14.497145,-29.994094c-5.598738,-10.261179 -12.193279,-19.572786 -19.496161,-25.994881c-3.650001,-3.208008 -8.155514,-6.423535 -12.497539,-7.498523c-4.191015,-1.047794 -9.164115,-0.159969 -13.497342,1.999606c-11.197315,6.212537 -17.535587,16.384294 -19.996063,26.994684c-2.472473,10.773239 -1.303743,23.179276 0.499102,33.993306c1.832279,10.790515 4.669321,19.688443 6.49872,26.994684c0.783846,3.080033 1.738858,5.956427 1.999606,7.498523c0,1.527699 -0.622277,5.515714 -0.999803,6.998622c-1.890508,6.547191 -6.488162,17.496555 -6.49872,17.496555c0,0 -87.229863,231.681259 99.980312,215.457573c1.542096,-0.111978 5.044607,-0.999803 6.49872,-0.999803c36.76508,-7.402062 71.55519,-18.519393 102.47982,-30.993897c6.075604,-2.911427 14.046034,-5.803977 22.995472,-9.998031c17.898076,-8.385229 40.384208,-19.130153 61.987794,-30.993897c21.612224,-11.872702 41.664436,-24.523171 56.988778,-37.992519c15.350577,-13.489664 26.554291,-28.271393 24.495177,-42.991534c-3.257599,-23.730527 -19.016895,-41.365775 -39.992125,-54.989172c-21.053934,-13.672988 -47.307165,-23.109689 -73.48553,-29.994094c-26.167007,-6.881525 -51.575444,-12.477863 -70.986022,-15.496948c-9.702409,-1.511702 -18.794699,-1.951616 -24.495177,-2.999409c-1.686708,-0.289543 -2.58749,-0.70866 -3.499311,-0.999803c-0.491103,-0.063987 -0.534295,-0.209559 -0.999803,-0.499102c-0.580686,-0.348731 -1.649275,-0.388723 -1.999606,-0.999803c-0.319937,-0.580686 0,-1.330938 0,-1.999606c0,-0.260749 -0.002719,-0.651072 0,-0.999803l0,-14.497145c-0.319937,-11.965644 -1.023798,-27.763013 -3.499311,-42.491633c-2.501427,-14.789888 -6.359388,-28.934942 -14.497145,-38.49242c-4.836648,-5.68608 -11.683779,-9.417346 -19.996063,-9.998031c-2.501267,-0.291143 -5.296557,-0.494303 -7.998425,0l0,-0.0008z"/>
  <path fill="#ffffff" fill-rule="nonzero" id="path24730" d="m407.997247,101.263601c0,24.998412 -20.265202,45.263639 -45.263614,45.263639c-24.998412,0 -45.263639,-20.265227 -45.263639,-45.263639c0,-24.998387 20.265227,-45.263614 45.263639,-45.263614c24.998412,0 45.263614,20.265227 45.263614,45.263614z"/>
  <path fill="#ffffff" id="path24702" d="m72.905275,455.687655c-0.243065,-0.639216 -0.404682,-16.325352 -0.359123,-34.223408l0.082749,-33.219257l17.928971,0l17.788041,0c-0.330556,-47.586515 0.330533,-95.850368 0,-143.436883l-19.446052,-0.130168l-18.595383,-0.130168l-0.643238,-34.154605l-0.643261,-34.154605l19.535426,0l19.792507,0l0,-20.3387c0,-47.634468 28.423438,-76.443993 77.643744,-88.774824c30.162223,-6.156234 46.513329,-4.320382 77.241921,-3.620986l0.640123,36.609661l0.640146,36.609661l-20.397741,0c-31.469013,0 -40.667661,7.615274 -40.744042,29.632673l0,9.878797c68.957887,0 136.180151,0 205.138038,0c0,70.507487 0,141.502661 0,212.010148l34.281519,0c0,0 -0.101345,-0.206874 0,4.742288c0.539406,26.352447 -0.252897,31.174137 0,62.700378c-0.756693,0.756832 -38.001851,-0.114362 -82.045481,0l-80.079298,0l0,-33.516319l0,-33.926347c11.622114,0 23.244229,0 34.866344,0c0,-47.909308 0,-95.75316 0,-143.662468c-32.402781,0.376952 -83.24916,0.188278 -112.161122,0c-2.209341,54.314232 -1.284081,78.798331 0,143.662468c12.979066,0.492545 25.960526,-0.4286 38.941801,0l0.63989,34.380307l0.639867,33.062359l-85.12218,0c-46.817201,0 -85.321081,0.639216 -85.564169,0z"/>
 </g>
</svg>