<svg id="Capa_1" enable-background="new 0 0 512 512" height="512" viewBox="0 0 512 512" width="512" xmlns="http://www.w3.org/2000/svg"><path d="m512 46c0-24.853-20.147-45-45-45h-422c-24.853 0-45 20.147-45 45v90l10 10h492c3.905-3.905 6.095-6.095 10-10z" fill="#0052c2"/><path d="m512 46v90c-3.91 3.91-6.09 6.09-10 10h-246v-145h211c24.85 0 45 20.15 45 45z" fill="#003481"/><path d="m436 61h-90c-8.284 0-15 6.716-15 15s6.716 15 15 15h90c8.284 0 15-6.716 15-15s-6.716-15-15-15z" fill="#0052c2"/><circle cx="196" cy="76" fill="#f03800" r="15"/><circle cx="136" cy="76" fill="#fdbf00" r="15"/><circle cx="76" cy="76" fill="#37d742" r="15"/><path d="m0 136v300c0 24.813 20.187 45 45 45h422c24.813 0 45-20.187 45-45v-300z" fill="#e0f4ff"/><path d="m512 136v300c0 24.81-20.19 45-45 45h-211v-345z" fill="#b8e0f5"/><path d="m323.511 199.076c-9.995-5.783-22.511 1.458-22.511 12.984v66.44l-45 33.75-45-33.75v-66.44c0-11.546-12.534-18.758-22.511-12.984-41.629 24.081-67.489 68.884-67.489 116.924 0 45.091 22.78 87.328 60 112.257v67.743c0 8.284 6.716 15 15 15h120c8.284 0 15-6.716 15-15v-67.743c37.22-24.929 60-67.166 60-112.257 0-48.04-25.86-92.843-67.489-116.924z" fill="#ff641a"/><path d="m391 316c0 45.09-22.78 87.33-60 112.26v67.74c0 8.28-6.72 15-15 15h-60v-198.75l45-33.75v-66.44c0-11.53 12.52-18.77 22.51-12.98 41.63 24.08 67.49 68.88 67.49 116.92z" fill="#f03800"/></svg>