<svg id="Capa_1" enable-background="new 0 0 512 512" height="512" viewBox="0 0 512 512" width="512" xmlns="http://www.w3.org/2000/svg"><g><path d="m301 350.213h-90c-8.284 0-15 6.716-15 15v80c0 8.284 6.716 15 15 15h90c8.283 0 15-6.716 15-15v-80c0-8.284-6.717-15-15-15z" fill="#4e6ba6"/><path d="m301 350.213h-45v110h45c8.283 0 15-6.716 15-15v-80c0-8.284-6.717-15-15-15z" fill="#28487a"/><path d="m331 470.213h-150c-8.284 0-15-6.716-15-15s6.716-15 15-15h150c8.283 0 15 6.716 15 15s-6.717 15-15 15z" fill="#ecf9fd"/><path d="m331 440.213h-75v30h75c8.283 0 15-6.716 15-15s-6.717-15-15-15z" fill="#d9f3fc"/><path d="m497 280.213h-482c-8.284 0-15 6.716-15 15v70c0 8.284 6.716 15 15 15h482c8.283 0 15-6.716 15-15v-70c0-8.284-6.717-15-15-15z" fill="#ecf9fd"/><path d="m497 280.213h-241v100h241c8.283 0 15-6.716 15-15v-70c0-8.284-6.717-15-15-15z" fill="#d9f3fc"/><path d="m497 0h-482c-8.284 0-15 6.716-15 15v280.213h512v-280.213c0-8.284-6.717-15-15-15z" fill="#4e6ba6"/><path d="m497 0h-241v295.213h256v-280.213c0-8.284-6.717-15-15-15z" fill="#28487a"/><path d="m378.07 58.185c-8.499-8.501-19.8-13.183-31.82-13.183s-23.321 4.682-31.819 13.182l-109.001 109c-17.543 17.545-17.543 46.094 0 63.638 8.499 8.5 19.799 13.182 31.82 13.182 12.02 0 23.321-4.682 31.818-13.181l109-108.999c8.5-8.5 13.183-19.801 13.183-31.82 0-12.02-4.683-23.321-13.181-31.819z" fill="#ffe470"/><path d="m378.07 58.185-172.638 172.638c8.499 8.499 19.798 13.18 31.818 13.18s23.321-4.682 31.818-13.181l109-108.999c8.5-8.5 13.183-19.801 13.183-31.82s-4.683-23.32-13.181-31.818z" fill="#fabe2c"/><path d="m216.037 145.216c-19.704 0-38.099 7.929-51.795 22.326-12.504 13.144-20.706 31.208-23.096 50.863-3.213 26.428-18.385 54.3-18.531 54.566-2.563 4.646-2.48 10.302.218 14.871 2.698 4.57 7.61 7.374 12.917 7.374h80.287c41.356 0 75-33.645 75-75 0-41.356-33.644-75-75-75z" fill="#f37"/><path d="m141.039 295.216h74.998c41.356 0 75-33.645 75-75 0-20.678-8.41-39.427-21.99-53.008z" fill="#cc295f"/></g></svg>