<svg id="Capa_1" enable-background="new 0 0 512 512" height="512" viewBox="0 0 512 512" width="512" xmlns="http://www.w3.org/2000/svg"><path d="m256 121c-74.399 0-135 60.601-135 135s60.601 135 135 135 135-60.601 135-135-60.601-135-135-135z" fill="#a8ebfa"/><path d="m391 256c0 74.399-60.601 135-135 135v-270c74.399 0 135 60.601 135 135z" fill="#76e2f8"/><path d="m256 151c-57.9 0-105 47.1-105 105s47.1 105 105 105 105-47.1 105-105-47.1-105-105-105z" fill="#76e2f8"/><path d="m361 256c0 57.9-47.1 105-105 105v-210c57.9 0 105 47.1 105 105z" fill="#4bb9ec"/><path d="m372.777 99.921c-26.104-19.57-56.88-32.344-88.975-36.943-8.202-1.187-13.901-8.775-12.729-16.978s8.921-13.872 16.978-12.729c37.075 5.317 72.598 20.068 102.715 42.656 6.636 4.966 7.983 14.37 3.003 20.991-4.949 6.622-14.347 7.986-20.992 3.003z" fill="#fdbf00"/><path d="m449.022 228.197c-4.6-32.095-17.373-62.871-36.943-88.975-4.98-6.621-3.633-16.025 3.003-20.991 6.606-4.98 16.025-3.662 20.991 3.003 22.588 30.117 37.339 65.64 42.656 102.715 1.172 8.203-4.526 15.791-12.729 16.978-8.137 1.162-15.781-4.467-16.978-12.73z" fill="#fdbf00"/><path d="m415.082 393.769c-6.636-4.966-7.983-14.37-3.003-20.991 19.57-26.104 32.344-56.88 36.943-88.975 1.172-8.188 8.906-13.77 16.978-12.729 8.203 1.187 13.901 8.774 12.729 16.978-5.317 37.075-20.068 72.598-42.656 102.715-4.948 6.621-14.347 7.985-20.991 3.002z" fill="#fdbf00"/><path d="m271.073 466c-1.172-8.203 4.526-15.791 12.729-16.978 32.095-4.6 62.871-17.373 88.975-36.943 6.606-4.995 15.996-3.647 20.991 3.003 4.98 6.621 3.633 16.025-3.003 20.991-30.117 22.588-65.64 37.339-102.715 42.656-8.158 1.166-15.785-4.499-16.977-12.729z" fill="#fdbf00"/><path d="m118.231 96.918c-4.98-6.621-3.633-16.025 3.003-20.991 30.117-22.588 65.64-37.339 102.715-42.656 8.159-1.289 15.776 4.512 16.978 12.729 1.172 8.203-4.526 15.791-12.729 16.978-32.095 4.6-62.871 17.373-88.975 36.943-6.64 4.98-16.04 3.624-20.992-3.003z" fill="#ffda2d"/><path d="m223.949 478.729c-37.075-5.317-72.598-20.068-102.715-42.656-6.636-4.966-7.983-14.37-3.003-20.991 4.995-6.636 14.37-7.954 20.991-3.003 26.104 19.57 56.88 32.344 88.975 36.943 8.203 1.187 13.901 8.774 12.729 16.978-1.175 8.228-8.819 13.895-16.977 12.729z" fill="#ffda2d"/><path d="m75.927 390.766c-22.588-30.117-37.339-65.64-42.656-102.715-1.172-8.203 4.526-15.791 12.729-16.978 8.218-1.216 15.791 4.526 16.978 12.729 4.6 32.095 17.373 62.871 36.943 88.975 4.98 6.621 3.633 16.025-3.003 20.991-6.64 4.981-16.04 3.624-20.991-3.002z" fill="#ffda2d"/><path d="m48.139 241.073c-.703 0-1.421-.044-2.139-.146-8.203-1.187-13.901-8.774-12.729-16.978 5.317-37.075 20.068-72.598 42.656-102.715 4.966-6.636 14.37-7.939 20.991-3.003 6.636 4.966 7.983 14.37 3.003 20.991-19.57 26.104-32.344 56.88-36.943 88.975-1.07 7.486-7.5 12.876-14.839 12.876z" fill="#ffda2d"/><path d="m372.675 436.308c-17.549-17.549-17.549-46.084 0-63.633s46.084-17.549 63.633 0 17.549 46.084 0 63.633c-17.532 17.531-46.084 17.549-63.633 0z" fill="#76e2f8"/><path d="m75.692 139.325c-17.549-17.549-17.549-46.084 0-63.633s46.084-17.549 63.633 0 17.549 46.084 0 63.633c-17.531 17.532-46.084 17.549-63.633 0z" fill="#a8ebfa"/><path d="m372.675 139.325c-17.549-17.549-17.549-46.084 0-63.633s46.084-17.549 63.633 0 17.549 46.084 0 63.633c-17.532 17.532-46.084 17.549-63.633 0z" fill="#76e2f8"/><path d="m75.692 436.308c-17.549-17.549-17.549-46.084 0-63.633s46.084-17.549 63.633 0 17.549 46.084 0 63.633c-17.531 17.531-46.084 17.549-63.633 0z" fill="#a8ebfa"/><path d="m466 301c-24.814 0-45-20.186-45-45s20.186-45 45-45 46 20.186 46 45-21.186 45-46 45z" fill="#76e2f8"/><g fill="#a8ebfa"><path d="m46 301c-24.814 0-46-20.186-46-45s21.186-45 46-45 45 20.186 45 45-20.186 45-45 45z"/><path d="m256 121c-39.3 0-60 67.8-60 135s20.7 135 60 135 60-67.8 60-135-20.7-135-60-135zm0 240c-8.699 0-30-36.899-30-105s21.301-105 30-105 30 36.899 30 105-21.301 105-30 105z"/><path d="m382.301 211c0 8.401-6.601 15-15 15h-222.602c-8.399 0-15-6.599-15-15s6.601-15 15-15h222.601c8.4 0 15.001 6.599 15.001 15z"/><path d="m382.301 301c0 8.401-6.601 15-15 15h-222.602c-8.399 0-15-6.599-15-15s6.601-15 15-15h222.601c8.4 0 15.001 6.599 15.001 15z"/></g><path d="m382.301 301c0 8.401-6.601 15-15 15h-111.301v-30h111.301c8.399 0 15 6.599 15 15z" fill="#76e2f8"/><path d="m367.301 226h-111.301v-30h111.301c8.399 0 15 6.599 15 15s-6.601 15-15 15z" fill="#76e2f8"/><path d="m316 256c0 67.2-20.7 135-60 135v-30c8.699 0 30-36.899 30-105s-21.301-105-30-105v-30c39.3 0 60 67.8 60 135z" fill="#76e2f8"/><path d="m256 421c-24.901 0-45 20.099-45 45s20.099 46 45 46 45-21.099 45-46-20.099-45-45-45z" fill="#a8ebfa"/><path d="m256 0c-24.901 0-45 21.099-45 46s20.099 45 45 45 45-20.099 45-45-20.099-46-45-46z" fill="#a8ebfa"/><path d="m301 466c0 24.901-20.099 46-45 46v-91c24.901 0 45 20.099 45 45z" fill="#76e2f8"/><path d="m256 91v-91c24.901 0 45 21.099 45 46s-20.099 45-45 45z" fill="#76e2f8"/></svg>